<?xml version="1.0" encoding="UTF-8"?>
<svg xmlns="http://www.w3.org/2000/svg" xmlns:xlink="http://www.w3.org/1999/xlink" viewBox="0 0 350 177.79">
  <defs>
    <style>
      .cls-1 {
        fill: url(#linear-gradient-24);
      }

      .cls-1, .cls-2, .cls-3, .cls-4, .cls-5, .cls-6, .cls-7, .cls-8, .cls-9, .cls-10, .cls-11, .cls-12, .cls-13, .cls-14, .cls-15, .cls-16, .cls-17, .cls-18, .cls-19, .cls-20, .cls-21 {
        mix-blend-mode: multiply;
      }

      .cls-2 {
        fill: url(#linear-gradient-35);
      }

      .cls-22 {
        fill: url(#linear-gradient-2);
      }

      .cls-23 {
        fill: #234e02;
      }

      .cls-3 {
        fill: url(#linear-gradient-22);
      }

      .cls-24 {
        fill: #fff;
      }

      .cls-25 {
        fill: url(#linear-gradient-17);
      }

      .cls-4 {
        fill: url(#linear-gradient-13);
      }

      .cls-26 {
        fill: url(#linear-gradient-43);
      }

      .cls-5 {
        fill: url(#linear-gradient-11);
      }

      .cls-6 {
        fill: url(#linear-gradient-10);
      }

      .cls-27 {
        opacity: .5;
      }

      .cls-28 {
        fill: url(#linear-gradient-15);
      }

      .cls-7 {
        fill: url(#linear-gradient-50);
      }

      .cls-29 {
        fill: url(#linear-gradient-18);
      }

      .cls-30 {
        fill: url(#linear-gradient-40);
      }

      .cls-31 {
        fill: url(#linear-gradient-28);
      }

      .cls-32 {
        fill: url(#linear-gradient-20);
      }

      .cls-33 {
        fill: url(#linear-gradient-6);
      }

      .cls-34 {
        isolation: isolate;
      }

      .cls-8 {
        fill: url(#linear-gradient-37);
      }

      .cls-35 {
        fill: url(#linear-gradient-32);
      }

      .cls-9 {
        fill: url(#linear-gradient-26);
      }

      .cls-10 {
        fill: url(#linear-gradient-38);
      }

      .cls-36 {
        fill: url(#linear-gradient-39);
      }

      .cls-37 {
        fill: #316c03;
      }

      .cls-11 {
        fill: url(#linear-gradient-34);
      }

      .cls-38 {
        fill: url(#linear-gradient-16);
      }

      .cls-12 {
        fill: url(#linear-gradient-25);
      }

      .cls-39 {
        fill: url(#linear-gradient-31);
      }

      .cls-40 {
        fill: #479c05;
      }

      .cls-41 {
        fill: url(#linear-gradient-41);
      }

      .cls-42 {
        fill: url(#linear-gradient-21);
      }

      .cls-43 {
        fill: url(#linear-gradient-5);
      }

      .cls-44 {
        fill: url(#linear-gradient-45);
      }

      .cls-13 {
        fill: url(#linear-gradient-49);
      }

      .cls-45 {
        fill: none;
      }

      .cls-14 {
        fill: url(#linear-gradient-48);
      }

      .cls-15 {
        fill: url(#linear-gradient-36);
      }

      .cls-46 {
        fill: url(#linear-gradient-7);
      }

      .cls-16 {
        fill: url(#linear-gradient-12);
      }

      .cls-17 {
        fill: url(#linear-gradient-46);
      }

      .cls-18 {
        fill: url(#linear-gradient-47);
      }

      .cls-47 {
        fill: url(#linear-gradient-9);
      }

      .cls-48 {
        fill: url(#linear-gradient-42);
      }

      .cls-49 {
        fill: url(#linear-gradient-3);
      }

      .cls-50 {
        fill: url(#linear-gradient);
      }

      .cls-19 {
        fill: url(#linear-gradient-23);
      }

      .cls-51 {
        fill: url(#linear-gradient-27);
      }

      .cls-52 {
        fill: url(#linear-gradient-33);
      }

      .cls-53 {
        fill: url(#linear-gradient-29);
      }

      .cls-20 {
        fill: url(#linear-gradient-14);
      }

      .cls-54 {
        fill: url(#linear-gradient-30);
      }

      .cls-55 {
        fill: url(#linear-gradient-19);
      }

      .cls-56 {
        fill: url(#linear-gradient-4);
      }

      .cls-57 {
        fill: url(#linear-gradient-8);
      }

      .cls-58 {
        fill: url(#linear-gradient-44);
      }
    </style>
    <linearGradient id="linear-gradient" x1="311.79" y1="83.27" x2="-4.23" y2="83.27" gradientUnits="userSpaceOnUse">
      <stop offset=".11" stop-color="#00bf97"/>
      <stop offset="1" stop-color="#7bff2a"/>
    </linearGradient>
    <linearGradient id="linear-gradient-2" x1="8.02" y1="57.99" x2="308.35" y2="156.35" xlink:href="#linear-gradient"/>
    <linearGradient id="linear-gradient-3" x1="2660.98" y1="-355.68" x2="2699.14" y2="-360.73" gradientTransform="translate(-1975.45 -1392.57) rotate(39.16)" gradientUnits="userSpaceOnUse">
      <stop offset="0" stop-color="#baba9b"/>
      <stop offset="0" stop-color="#baba9b"/>
      <stop offset="0" stop-color="#baba9b"/>
      <stop offset="0" stop-color="#baba9b"/>
      <stop offset="0" stop-color="#baba9b"/>
      <stop offset="0" stop-color="#baba9b"/>
      <stop offset="0" stop-color="#baba9b"/>
      <stop offset="0" stop-color="#baba9b"/>
      <stop offset="0" stop-color="#baba9b"/>
      <stop offset="0" stop-color="#baba9b"/>
      <stop offset="0" stop-color="#baba9b"/>
      <stop offset="0" stop-color="#baba9b"/>
      <stop offset="0" stop-color="#baba9b"/>
      <stop offset="0" stop-color="#baba9b"/>
      <stop offset="0" stop-color="#baba9b"/>
      <stop offset="0" stop-color="#baba9b"/>
      <stop offset="0" stop-color="#baba9b"/>
      <stop offset="0" stop-color="#baba9b"/>
      <stop offset="0" stop-color="#baba9b"/>
      <stop offset="0" stop-color="#baba9b"/>
      <stop offset="0" stop-color="#baba9b"/>
      <stop offset="0" stop-color="#baba9b"/>
      <stop offset="0" stop-color="#baba9b"/>
      <stop offset="0" stop-color="#baba9b"/>
      <stop offset="0" stop-color="#baba9b"/>
      <stop offset="0" stop-color="#baba9b"/>
      <stop offset="0" stop-color="#baba9b"/>
      <stop offset="0" stop-color="#baba9b"/>
      <stop offset="0" stop-color="#baba9b"/>
      <stop offset="0" stop-color="#baba9b"/>
      <stop offset="0" stop-color="#baba9b"/>
      <stop offset="0" stop-color="#baba9b"/>
      <stop offset="0" stop-color="#baba9b"/>
      <stop offset="0" stop-color="#baba9b"/>
      <stop offset="0" stop-color="#baba9b"/>
      <stop offset="0" stop-color="#baba9b"/>
      <stop offset="0" stop-color="#baba9b"/>
      <stop offset="0" stop-color="#baba9b"/>
      <stop offset="0" stop-color="#baba9b"/>
      <stop offset="0" stop-color="#baba9b"/>
      <stop offset="0" stop-color="#baba9b"/>
      <stop offset="0" stop-color="#baba9b"/>
      <stop offset="0" stop-color="#baba9b"/>
      <stop offset="0" stop-color="#baba9b"/>
      <stop offset="0" stop-color="#baba9b"/>
      <stop offset="0" stop-color="#baba9b"/>
      <stop offset="0" stop-color="#baba9a"/>
      <stop offset="0" stop-color="#baba9a"/>
      <stop offset="0" stop-color="#b9ba99"/>
      <stop offset="0" stop-color="#b9ba96"/>
      <stop offset="0" stop-color="#b8ba94"/>
      <stop offset=".17" stop-color="#98ba16"/>
      <stop offset=".3" stop-color="#578f00"/>
      <stop offset=".81" stop-color="#3a6a03"/>
      <stop offset="1" stop-color="#275902"/>
    </linearGradient>
    <linearGradient id="linear-gradient-4" x1="2652.97" y1="-388.19" x2="2668.1" y2="-388.55" gradientTransform="translate(-1947.08 -1421.13) rotate(40.67)" xlink:href="#linear-gradient-3"/>
    <linearGradient id="linear-gradient-5" x1="2684.03" y1="-383.74" x2="2672.37" y2="-314.13" xlink:href="#linear-gradient-3"/>
    <linearGradient id="linear-gradient-6" x1="2683.4" y1="-383.84" x2="2671.75" y2="-314.25" xlink:href="#linear-gradient-3"/>
    <linearGradient id="linear-gradient-7" x1="2684.43" y1="-383.67" x2="2672.77" y2="-314.07" xlink:href="#linear-gradient-3"/>
    <linearGradient id="linear-gradient-8" x1="2684.05" y1="-383.73" x2="2672.39" y2="-314.15" xlink:href="#linear-gradient-3"/>
    <linearGradient id="linear-gradient-9" x1="2683.54" y1="-383.83" x2="2671.88" y2="-314.22" xlink:href="#linear-gradient-3"/>
    <linearGradient id="linear-gradient-10" x1="2687.02" y1="-383.23" x2="2675.36" y2="-313.63" xlink:href="#linear-gradient-3"/>
    <linearGradient id="linear-gradient-11" x1="2685.19" y1="-383.54" x2="2673.53" y2="-313.94" xlink:href="#linear-gradient-3"/>
    <linearGradient id="linear-gradient-12" x1="2688.64" y1="-382.95" x2="2676.99" y2="-313.38" xlink:href="#linear-gradient-3"/>
    <linearGradient id="linear-gradient-13" x1="2690.79" y1="-382.59" x2="2679.14" y2="-313.03" xlink:href="#linear-gradient-3"/>
    <linearGradient id="linear-gradient-14" x1="2690.95" y1="-382.53" x2="2679.3" y2="-312.98" xlink:href="#linear-gradient-3"/>
    <linearGradient id="linear-gradient-15" x1="2536.29" y1="919.02" x2="2574.46" y2="913.97" gradientTransform="translate(-2340.09 -572.49) rotate(-7.15)" gradientUnits="userSpaceOnUse">
      <stop offset="0" stop-color="#ffffd4"/>
      <stop offset=".17" stop-color="#9cbf16"/>
      <stop offset=".3" stop-color="#94f000"/>
      <stop offset=".81" stop-color="#6dc607"/>
      <stop offset="1" stop-color="#4daf04"/>
    </linearGradient>
    <linearGradient id="linear-gradient-16" x1="2560.7" y1="888.09" x2="2575.83" y2="887.74" gradientTransform="translate(-2340.18 -611.6) rotate(-5.64)" xlink:href="#linear-gradient-15"/>
    <linearGradient id="linear-gradient-17" x1="2559.35" y1="890.99" x2="2547.71" y2="960.5" xlink:href="#linear-gradient-15"/>
    <linearGradient id="linear-gradient-18" x1="2558.73" y1="890.87" x2="2547.08" y2="960.42" xlink:href="#linear-gradient-15"/>
    <linearGradient id="linear-gradient-19" x1="2559.75" y1="891.03" x2="2548.1" y2="960.62" xlink:href="#linear-gradient-15"/>
    <linearGradient id="linear-gradient-20" x1="2559.36" y1="890.98" x2="2547.71" y2="960.54" xlink:href="#linear-gradient-15"/>
    <linearGradient id="linear-gradient-21" x1="2558.85" y1="890.89" x2="2547.2" y2="960.46" xlink:href="#linear-gradient-15"/>
    <linearGradient id="linear-gradient-22" x1="2562.34" y1="891.48" x2="2550.69" y2="961.03" xlink:href="#linear-gradient-15"/>
    <linearGradient id="linear-gradient-23" x1="2560.51" y1="891.15" x2="2548.85" y2="960.78" xlink:href="#linear-gradient-15"/>
    <linearGradient id="linear-gradient-24" x1="2563.96" y1="891.74" x2="2552.31" y2="961.32" xlink:href="#linear-gradient-15"/>
    <linearGradient id="linear-gradient-25" x1="2566.12" y1="892.09" x2="2554.46" y2="961.69" xlink:href="#linear-gradient-15"/>
    <linearGradient id="linear-gradient-26" x1="2566.27" y1="892.15" x2="2554.61" y2="961.73" xlink:href="#linear-gradient-15"/>
    <linearGradient id="linear-gradient-27" x1="1221.49" y1="-194.22" x2="1259.67" y2="-199.28" gradientTransform="translate(238.37 -1213.39) rotate(94.78)" gradientUnits="userSpaceOnUse">
      <stop offset="0" stop-color="#ffffd4"/>
      <stop offset=".17" stop-color="#9cbf16"/>
      <stop offset=".3" stop-color="#7ece00"/>
      <stop offset=".81" stop-color="#549905"/>
      <stop offset="1" stop-color="#387f03"/>
    </linearGradient>
    <linearGradient id="linear-gradient-28" x1="1217.13" y1="-187.69" x2="1232.27" y2="-188.04" gradientTransform="translate(278.88 -1204.99) rotate(96.28)" xlink:href="#linear-gradient-27"/>
    <linearGradient id="linear-gradient-29" x1="1244.54" y1="-222.26" x2="1232.9" y2="-152.74" xlink:href="#linear-gradient-27"/>
    <linearGradient id="linear-gradient-30" x1="1243.92" y1="-222.38" x2="1232.27" y2="-152.78" xlink:href="#linear-gradient-27"/>
    <linearGradient id="linear-gradient-31" x1="1244.94" y1="-222.2" x2="1233.3" y2="-152.65" xlink:href="#linear-gradient-27"/>
    <linearGradient id="linear-gradient-32" x1="1244.56" y1="-222.26" x2="1232.92" y2="-152.73" xlink:href="#linear-gradient-27"/>
    <linearGradient id="linear-gradient-33" x1="1244.05" y1="-222.35" x2="1232.4" y2="-152.81" xlink:href="#linear-gradient-27"/>
    <linearGradient id="linear-gradient-34" x1="1247.53" y1="-221.76" x2="1235.89" y2="-152.22" xlink:href="#linear-gradient-27"/>
    <linearGradient id="linear-gradient-35" x1="1245.71" y1="-222.08" x2="1234.05" y2="-152.5" xlink:href="#linear-gradient-27"/>
    <linearGradient id="linear-gradient-36" x1="1249.16" y1="-221.49" x2="1237.51" y2="-151.96" xlink:href="#linear-gradient-27"/>
    <linearGradient id="linear-gradient-37" x1="1251.31" y1="-221.12" x2="1239.67" y2="-151.6" xlink:href="#linear-gradient-27"/>
    <linearGradient id="linear-gradient-38" x1="1251.47" y1="-221.07" x2="1239.82" y2="-151.55" xlink:href="#linear-gradient-27"/>
    <linearGradient id="linear-gradient-39" x1="1062.31" y1="-416.97" x2="1090.18" y2="-420.66" gradientTransform="translate(867.09 -969.1) rotate(139.47)" xlink:href="#linear-gradient-3"/>
    <linearGradient id="linear-gradient-40" x1="1050.97" y1="-407.15" x2="1062.02" y2="-407.41" gradientTransform="translate(889.2 -936.05) rotate(140.98)" xlink:href="#linear-gradient-3"/>
    <linearGradient id="linear-gradient-41" x1="1079.15" y1="-437.44" x2="1070.64" y2="-386.66" gradientTransform="translate(867.09 -969.1) rotate(139.47)" xlink:href="#linear-gradient-3"/>
    <linearGradient id="linear-gradient-42" x1="1078.69" y1="-437.51" x2="1070.19" y2="-386.74" gradientTransform="translate(867.09 -969.1) rotate(139.47)" xlink:href="#linear-gradient-3"/>
    <linearGradient id="linear-gradient-43" x1="1079.44" y1="-437.39" x2="1070.93" y2="-386.63" gradientTransform="translate(867.09 -969.1) rotate(139.47)" xlink:href="#linear-gradient-3"/>
    <linearGradient id="linear-gradient-44" x1="1079.15" y1="-437.42" x2="1070.66" y2="-386.7" gradientTransform="translate(867.09 -969.1) rotate(139.47)" xlink:href="#linear-gradient-3"/>
    <linearGradient id="linear-gradient-45" x1="1078.78" y1="-437.5" x2="1070.28" y2="-386.74" gradientTransform="translate(867.09 -969.1) rotate(139.47)" xlink:href="#linear-gradient-3"/>
    <linearGradient id="linear-gradient-46" x1="1081.33" y1="-437.08" x2="1072.82" y2="-386.3" gradientTransform="translate(867.09 -969.1) rotate(139.47)" xlink:href="#linear-gradient-3"/>
    <linearGradient id="linear-gradient-47" x1="1080" y1="-437.3" x2="1071.49" y2="-386.51" gradientTransform="translate(867.09 -969.1) rotate(139.47)" xlink:href="#linear-gradient-3"/>
    <linearGradient id="linear-gradient-48" x1="1082.52" y1="-436.88" x2="1074.01" y2="-386.1" gradientTransform="translate(867.09 -969.1) rotate(139.47)" xlink:href="#linear-gradient-3"/>
    <linearGradient id="linear-gradient-49" x1="1084.08" y1="-436.61" x2="1075.58" y2="-385.85" gradientTransform="translate(867.09 -969.1) rotate(139.47)" xlink:href="#linear-gradient-3"/>
    <linearGradient id="linear-gradient-50" x1="1084.19" y1="-436.58" x2="1075.69" y2="-385.81" gradientTransform="translate(867.09 -969.1) rotate(139.47)" xlink:href="#linear-gradient-3"/>
  </defs>
  <g class="cls-34">
    <g id="Layer_2" data-name="Layer 2">
      <g id="Layer_1-2" data-name="Layer 1">
        <g>
          <g>
            <g>
              <path class="cls-24" d="m27.29,55.57v-20.91h5.84v8.44l6.04-8.44h6.32l-5.74,7.98,6.68,12.93h-6.04l-4.66-8.82-2.6,3.36v5.47h-5.84Z"/>
              <path class="cls-24" d="m46.77,55.57v-20.91h5.63v20.91h-5.63Z"/>
              <path class="cls-24" d="m62.68,55.86c-1.08,0-2.15-.14-3.2-.41-1.06-.27-2.02-.68-2.91-1.23-.88-.55-1.61-1.24-2.18-2.08-.57-.83-.9-1.81-.98-2.94h5.73c.11.49.32.91.64,1.26s.75.61,1.29.8c.54.19,1.2.28,1.96.28.45,0,.91-.06,1.37-.17.46-.11.85-.3,1.16-.56.31-.26.47-.63.47-1.09,0-.61-.25-1.02-.75-1.25-.5-.23-1.09-.4-1.78-.53l-3.57-.64c-1.24-.22-2.31-.6-3.2-1.12-.89-.52-1.56-1.21-2.03-2.06-.47-.85-.7-1.87-.7-3.05,0-1.41.39-2.61,1.17-3.61.78-1,1.84-1.76,3.18-2.28,1.34-.53,2.84-.79,4.51-.79,1.82,0,3.37.28,4.65.84,1.28.56,2.26,1.34,2.94,2.33s1.04,2.14,1.07,3.43h-5.58c-.06-.53-.22-.96-.49-1.29-.27-.33-.63-.57-1.09-.73-.46-.16-1.01-.24-1.66-.24-1.04,0-1.77.18-2.18.55-.41.37-.62.76-.62,1.19s.17.8.51,1.11c.34.3.95.53,1.83.67l3.11.51c1.46.23,2.65.64,3.58,1.21s1.62,1.3,2.06,2.17c.44.87.67,1.86.67,2.98,0,1.36-.39,2.54-1.18,3.55s-1.85,1.79-3.2,2.35c-1.35.56-2.88.84-4.6.84Z"/>
              <path class="cls-24" d="m81.39,55.86c-1.08,0-2.15-.14-3.2-.41-1.06-.27-2.02-.68-2.91-1.23-.88-.55-1.61-1.24-2.18-2.08-.57-.83-.9-1.81-.98-2.94h5.73c.11.49.32.91.64,1.26s.75.61,1.29.8c.54.19,1.2.28,1.96.28.45,0,.91-.06,1.37-.17.46-.11.85-.3,1.16-.56.31-.26.47-.63.47-1.09,0-.61-.25-1.02-.75-1.25-.5-.23-1.09-.4-1.78-.53l-3.57-.64c-1.24-.22-2.31-.6-3.2-1.12-.89-.52-1.56-1.21-2.03-2.06-.47-.85-.7-1.87-.7-3.05,0-1.41.39-2.61,1.17-3.61s1.84-1.76,3.18-2.28c1.34-.53,2.84-.79,4.51-.79,1.82,0,3.37.28,4.65.84,1.28.56,2.26,1.34,2.94,2.33.68.99,1.04,2.14,1.07,3.43h-5.58c-.06-.53-.22-.96-.49-1.29-.27-.33-.63-.57-1.09-.73-.46-.16-1.01-.24-1.66-.24-1.04,0-1.77.18-2.18.55-.41.37-.62.76-.62,1.19s.17.8.51,1.11c.34.3.95.53,1.83.67l3.11.51c1.46.23,2.65.64,3.58,1.21s1.62,1.3,2.06,2.17.67,1.86.67,2.98c0,1.36-.39,2.54-1.18,3.55-.79,1.01-1.85,1.79-3.2,2.35-1.35.56-2.88.84-4.6.84Z"/>
              <path class="cls-24" d="m89.46,55.57l7.4-20.91h5.76l7.4,20.91h-5.55l-1.39-4.05h-6.59l-1.42,4.05h-5.61Zm8.21-8.85h4.14l-2.05-6.68-2.08,6.68Z"/>
              <path class="cls-24" d="m110.24,55.57v-20.91h5.67l8.16,11.65v-11.65h5.63v20.91h-5.08l-8.75-12.47v12.47h-5.63Z"/>
            </g>
            <path class="cls-45" d="m70.97,86.88h-1.2c3.22,0,6.16,1.33,8.81,3.98,2.65,2.65,3.98,5.84,3.98,9.56,0,3.47-1.22,6.67-3.64,9.59-2.43,2.93-5.48,4.39-9.15,4.39h1.2c3.67,0,6.72-1.46,9.15-4.39,2.43-2.92,3.64-6.12,3.64-9.59,0-3.72-1.33-6.9-3.98-9.56-2.65-2.65-5.59-3.98-8.81-3.98Z"/>
            <path class="cls-45" d="m78.92,110.01c2.43-2.92,3.64-6.12,3.64-9.59,0-3.72-1.33-6.9-3.98-9.56-2.65-2.65-5.59-3.98-8.81-3.98h-15.53v27.51h15.53c3.67,0,6.72-1.46,9.15-4.39Z"/>
            <polygon class="cls-45" points="156.87 126.36 146.91 93.96 145.63 94.41 135.67 126.36 156.87 126.36"/>
            <polygon class="cls-45" points="146.34 92.12 145.63 94.41 146.91 93.96 146.34 92.12"/>
            <path class="cls-50" d="m331.2,31.3c-.09-.31-.13-.62-.16-.91l-41.26,14.17c-.82-6.48-6.34-11.5-13.04-11.5-7.27,0-13.16,5.89-13.16,13.16,0,2.45.69,4.74,1.86,6.7l-59.56,20.45-30.24-39.12h-31.13l35.81,47.89-11.85,4.07-7.39-20.86h-29.63l-13.53,38.22-6.6,2.27c.12-1.3.21-2.63.21-4.01,0-7.79-1.86-14.41-5.58-19.84-3.72-5.43-8.77-9.57-15.15-12.39-6.38-2.83-13.54-4.24-21.48-4.24H26.73v69.53h-.03v1.27L331.29,31.56c-.03-.09-.06-.18-.09-.26ZM80.12,110.01c-2.43,2.93-5.48,4.39-9.15,4.39h-17.93v-27.51h17.93c3.22,0,6.16,1.33,8.81,3.98,2.65,2.65,3.98,5.84,3.98,9.56,0,3.47-1.22,6.67-3.64,9.59Z"/>
            <path class="cls-22" d="m306.84,44.38l-.39-1.13L0,148.48v1.26l26.73-9.18v36.03h28.71v-35.89h17.6c7.89,0,14.72-1.36,20.47-4.09,5.76-2.73,10.2-6.64,13.33-11.73,2.37-3.86,3.81-8.32,4.38-13.33l6.34-2.18-24.22,68.41h28.09l7.54-21.53h35.07l7.38,21.53h27.8l-30.45-85.99,12.1-4.16,33.68,45.04v45.11h28.71v-44.82l37.91-62.84h-31.05l-20.97,38.09-22.7-29.37,59.5-20.43c2.37,3.44,6.31,5.72,10.81,5.72,7.27,0,13.16-5.89,13.16-13.16,0-.26-.03-.52-.05-.78l16.99-5.84Zm-171.17,86.76l9.77-31.33,1.63-.56,9.8,31.89h-21.2Z"/>
          </g>
          <g>
            <g>
              <g>
                <path class="cls-49" d="m340.16,14.88c.19-1.41.38-2.82.53-4.24.06-.62.12-1.23.16-1.85.02-.26.03-.51.04-.77,0-.2-.05-.51.03-.7-.02.03,0,.04,0,0-.12.27-.48.53-.69.73-.32.32-.65.63-.99.93-.75.67-1.52,1.32-2.31,1.93-1.42,1.08-13.44,8.09-15.4,9.73-1.48,1.23-2.81,2.67-3.7,4.39-1.04,2.04-1.49,4.3-1.5,6.58-.01,1.62.07,3.43.59,4.99.08.24.23.32.48.48.52.33,1.08.61,1.64.86,3.71,1.62,7.93,1.56,11.39-.65,3.98-2.54,6.38-7.07,7.71-11.47.56-1.82,1.85-9.67,2.02-10.93Z"/>
                <path class="cls-56" d="m323.87,18.89c-1.77,1.19-3.46,2.54-4.78,4.23-2.63,3.34-3.13,7.73-2.53,11.83.08.58.17,1.18.36,1.74.06.19.05.15.24.02.69-.5,1.36-1,2.03-1.52,2.56-1.99,4.98-4.15,7.24-6.46,4.52-4.61,8.41-9.83,11.55-15.47,1.07-1.93,2.05-3.9,2.95-5.92-1.52,1.8-14.3,9.72-17.05,11.57Z"/>
              </g>
              <g class="cls-27">
                <g class="cls-21">
                  <path class="cls-43" d="m333.22,14.52c.71,1.22.8,2.65.65,4.02-.22,1.39-.94,2.59-1.79,3.68.82-1.2,1.47-2.4,1.68-3.85.19-1.28.05-2.68-.54-3.85Z"/>
                  <path class="cls-33" d="m336.95,11.81c.85,1.48.3,3.21-.66,4.46.9-1.3,1.42-2.94.66-4.46Z"/>
                  <path class="cls-46" d="m329.5,17.23c.85,1.57.96,3.57.64,5.29-.38,2.07-1.42,3.8-2.69,5.43,1.17-1.69,2.15-3.42,2.55-5.46.33-1.7.25-3.67-.49-5.26Z"/>
                  <path class="cls-57" d="m325.19,19.43c1.14,1.98,1.27,4.4.95,6.6-.35,2.41-1.64,4.47-3.11,6.35.64-.93,1.3-1.86,1.77-2.89.57-1.26.97-2.5,1.2-3.86.34-2.01.1-4.37-.81-6.21Z"/>
                  <path class="cls-47" d="m321.76,21.68c1.12,2.3,1.04,4.99.52,7.42-.56,2.63-2.19,4.83-3.93,6.79,1.6-2.06,2.92-4.15,3.65-6.68.5-2.48.75-5.13-.23-7.54Z"/>
                </g>
                <path class="cls-6" d="m338.53,18.58c-1.28-.1-2.64.28-3.73.92-1.28.76-2.16,1.8-2.97,3.03.7-1.2,1.53-2.31,2.74-3.04,1.21-.65,2.57-1.12,3.96-.91Z"/>
                <path class="cls-5" d="m339.71,14.48c-1.69-.13-3.01.99-3.87,2.32.79-1.36,2.17-2.54,3.87-2.32Z"/>
                <path class="cls-16" d="m337.42,22.38c-1.74-.22-3.64.3-5.16,1.13-1.82,1-3.18,2.45-4.43,4.08,1.18-1.71,2.5-3.22,4.36-4.22,1.55-.82,3.47-1.33,5.23-1Z"/>
                <path class="cls-4" d="m336.84,27.49c-1.93-.66-4.31-.6-6.25,0-1.32.4-2.5.96-3.67,1.69-.96.6-1.8,1.38-2.64,2.13,1.67-1.69,3.54-3.25,5.87-3.9,2.15-.6,4.57-.8,6.69.08Z"/>
                <path class="cls-20" d="m332.34,32.35c-2.33-.89-5-.7-7.36-.09-2.57.65-4.74,2.2-6.76,3.85.84-.78,1.66-1.54,2.61-2.19,1.2-.82,2.53-1.42,3.9-1.87,2.52-.54,5.18-.82,7.61.3Z"/>
              </g>
              <path class="cls-23" d="m340.92,7.32c-.03.15-1.12,2.42-1.25,2.68-.66,1.31-1.35,2.59-2.06,3.87-1.56,2.79-3.28,5.5-5.15,8.1-1.92,2.67-3.96,5.28-6.27,7.63-2.13,2.17-8.49,6.85-9.23,7.32,0-.01-.02-.03-.03-.05,2.04-1.49,4.07-2.99,5.91-4.73,2.32-2.19,4.59-4.46,6.6-6.94,3.95-4.87,7.43-10.08,10.33-15.64.27-.52.53-1.04.79-1.56.07-.13.28-.55.36-.69Z"/>
            </g>
            <g>
              <g>
                <path class="cls-28" d="m312.08,5.77c-.89-1.11-1.78-2.22-2.7-3.3-.4-.47-.8-.94-1.22-1.4-.17-.19-.35-.38-.53-.57-.14-.14-.41-.32-.48-.5,0,.04.02.03,0,0,.12.27.05.71.06,1,0,.45,0,.9-.01,1.36-.04,1-.1,2.01-.21,3.01-.19,1.78-3.43,15.31-3.61,17.86-.13,1.92-.01,3.88.62,5.71.75,2.16,2.08,4.04,3.71,5.63,1.17,1.13,2.53,2.32,4.01,3.02.23.11.39.06.68-.02.6-.15,1.19-.36,1.75-.6,3.74-1.55,6.61-4.65,7.4-8.68.91-4.64-.7-9.49-2.96-13.5-.93-1.66-5.71-8.01-6.5-9.01Z"/>
                <path class="cls-38" d="m303.71,20.32c-.36,2.1-.56,4.26-.26,6.38.59,4.21,3.42,7.6,6.8,10,.48.34.97.69,1.51.94.18.08.15.06.17-.16.12-.83.22-1.68.3-2.52.33-3.22.44-6.46.34-9.7-.21-6.45-1.29-12.87-3.2-19.04-.65-2.11-1.4-4.19-2.24-6.22.25,2.33-2.86,17.05-3.42,20.32Z"/>
              </g>
              <g class="cls-27">
                <g class="cls-21">
                  <path class="cls-25" d="m307.02,10.54c1.37.32,2.47,1.26,3.35,2.3.86,1.12,1.22,2.47,1.43,3.83-.3-1.42-.72-2.71-1.62-3.88-.79-1.01-1.91-1.88-3.16-2.26Z"/>
                  <path class="cls-29" d="m307.64,5.97c1.65.4,2.53,2,2.76,3.56-.31-1.55-1.14-3.07-2.76-3.56Z"/>
                  <path class="cls-55" d="m306.4,15.1c1.72.47,3.23,1.77,4.26,3.19,1.23,1.7,1.76,3.65,2.06,5.7-.41-2.02-.98-3.92-2.19-5.61-1-1.41-2.48-2.71-4.14-3.28Z"/>
                  <path class="cls-32" d="m305.02,19.74c2.21.55,4.05,2.12,5.42,3.87,1.5,1.92,2.09,4.27,2.44,6.63-.23-1.1-.45-2.22-.87-3.28-.51-1.28-1.14-2.42-1.96-3.53-1.21-1.63-3.09-3.09-5.04-3.7Z"/>
                  <path class="cls-42" d="m304.27,23.78c2.44.77,4.32,2.69,5.73,4.75,1.51,2.23,1.97,4.91,2.19,7.53-.38-2.57-.99-4.97-2.31-7.25-1.45-2.08-3.19-4.08-5.61-5.03Z"/>
                </g>
                <path class="cls-3" d="m313.62,9.5c-.96.85-1.62,2.1-1.91,3.33-.34,1.45-.19,2.81.13,4.24-.38-1.33-.62-2.7-.3-4.08.37-1.32.97-2.63,2.08-3.49Z"/>
                <path class="cls-19" d="m311.47,5.81c-1.26,1.14-1.36,2.86-1,4.4-.44-1.51-.34-3.33,1-4.4Z"/>
                <path class="cls-1" d="m315.6,12.93c-1.37,1.1-2.3,2.84-2.75,4.51-.54,2.01-.43,3.99-.11,6.02-.42-2.03-.6-4.03-.04-6.06.47-1.69,1.44-3.44,2.9-4.47Z"/>
                <path class="cls-12" d="m318.89,16.87c-1.81.94-3.41,2.71-4.32,4.52-.62,1.23-1.03,2.47-1.31,3.82-.23,1.11-.25,2.25-.29,3.38-.06-2.37.1-4.8,1.25-6.94,1.05-1.97,2.58-3.85,4.68-4.78Z"/>
                <path class="cls-9" d="m319.29,23.47c-2.25,1.07-3.96,3.14-5.16,5.26-1.31,2.31-1.68,4.95-1.89,7.55.01-1.14.04-2.27.22-3.4.23-1.43.72-2.81,1.35-4.11,1.35-2.2,2.99-4.31,5.48-5.3Z"/>
              </g>
              <path class="cls-40" d="m307.14,0c.09.12.98,2.49,1.07,2.76.49,1.38.95,2.77,1.37,4.17.94,3.06,1.7,6.18,2.29,9.33.6,3.23,1.08,6.51,1.19,9.8.1,3.04.05,6.17-.56,9.17-.17.86-.35,1.7-.53,2.56-.02,0-.03,0-.05-.01.33-2.51.65-5.01.67-7.54.02-3.19-.05-6.4-.46-9.57-.79-6.21-2.14-12.34-4.17-18.27-.19-.55-.38-1.1-.58-1.65-.05-.14-.21-.58-.25-.74Z"/>
            </g>
            <g>
              <g>
                <path class="cls-51" d="m343.34,44.6c1.27-.64,2.54-1.29,3.79-1.96.55-.3,1.09-.59,1.62-.91.22-.13.44-.27.66-.4.17-.11.39-.33.59-.37-.04,0-.03.01,0,0-.29.06-.71-.1-.99-.15-.44-.08-.88-.18-1.32-.3-.97-.24-1.94-.51-2.9-.82-1.7-.56-14.26-6.52-16.71-7.22-1.85-.53-3.79-.81-5.71-.57-2.26.28-4.39,1.21-6.27,2.48-1.35.91-2.79,1.99-3.78,3.3-.16.2-.13.37-.12.67.02.62.1,1.24.22,1.84.75,3.98,3.18,7.43,6.96,9.04,4.35,1.85,9.43,1.27,13.82-.12,1.82-.57,9.02-3.94,10.16-4.51Z"/>
                <path class="cls-31" d="m330.84,33.41c-1.97-.79-4.05-1.42-6.18-1.57-4.24-.28-8.15,1.79-11.19,4.6-.43.4-.88.81-1.23,1.28-.12.16-.09.13.12.21.79.29,1.59.56,2.4.82,3.08.99,6.23,1.77,9.41,2.33,6.35,1.13,12.85,1.39,19.28.8,2.19-.21,4.38-.51,6.55-.92-2.33-.24-16.08-6.31-19.16-7.54Z"/>
              </g>
              <g class="cls-27">
                <g class="cls-21">
                  <path class="cls-53" d="m339.72,38.67c-.6,1.28-1.74,2.16-2.95,2.8-1.27.61-2.66.69-4.04.6,1.45,0,2.81-.14,4.13-.79,1.15-.56,2.24-1.48,2.86-2.62Z"/>
                  <path class="cls-54" d="m344.06,40.21c-.73,1.54-2.48,2.06-4.05,1.98,1.58.01,3.24-.49,4.05-1.98Z"/>
                  <path class="cls-39" d="m335.38,37.12c-.81,1.59-2.4,2.8-4,3.52-1.92.86-3.93.97-6,.84,2.06.02,4.03-.15,5.94-.98,1.59-.69,3.17-1.86,4.06-3.38Z"/>
                  <path class="cls-35" d="m331.14,34.81c-.99,2.05-2.91,3.53-4.91,4.51-2.19,1.07-4.61,1.16-6.99,1.02,1.13,0,2.27.02,3.38-.17,1.36-.24,2.61-.61,3.86-1.19,1.85-.85,3.66-2.39,4.66-4.17Z"/>
                  <path class="cls-52" d="m327.35,33.24c-1.27,2.23-3.52,3.68-5.83,4.63-2.49,1.02-5.21.92-7.82.59,2.6.16,5.07.07,7.57-.76,2.33-.99,4.65-2.28,6.08-4.45Z"/>
                </g>
                <path class="cls-11" d="m339.36,45.34c-.63-1.12-1.72-2.03-2.87-2.56-1.35-.63-2.71-.76-4.17-.74,1.38-.1,2.77-.04,4.05.54,1.22.63,2.37,1.5,2.99,2.76Z"/>
                <path class="cls-2" d="m343.42,43.99c-.85-1.47-2.51-1.93-4.09-1.88,1.57-.12,3.32.36,4.09,1.88Z"/>
                <path class="cls-15" d="m335.61,46.57c-.8-1.56-2.3-2.83-3.84-3.62-1.85-.94-3.81-1.24-5.86-1.35,2.07,0,4.07.24,5.93,1.22,1.55.81,3.06,2.12,3.77,3.76Z"/>
                <path class="cls-8" d="m331.06,48.98c-.55-1.97-1.94-3.9-3.53-5.16-1.08-.86-2.2-1.52-3.46-2.07-1.04-.46-2.15-.71-3.24-.98,2.33.43,4.68,1.08,6.53,2.65,1.71,1.44,3.23,3.32,3.71,5.57Z"/>
                <path class="cls-10" d="m324.53,48.01c-.58-2.43-2.25-4.52-4.08-6.13-1.99-1.76-4.49-2.66-6.99-3.4,1.11.25,2.21.5,3.28.91,1.35.52,2.59,1.28,3.74,2.17,1.88,1.78,3.6,3.81,4.05,6.45Z"/>
              </g>
              <path class="cls-37" d="m350,40.95c-.14.07-2.63.44-2.92.48-1.45.2-2.9.36-4.36.49-3.19.29-6.4.39-9.6.32-3.28-.07-6.59-.28-9.83-.86-2.99-.53-6.04-1.23-8.85-2.43-.8-.34-1.6-.7-2.39-1.05,0-.02.01-.03.02-.05,2.38.84,4.76,1.67,7.23,2.21,3.12.68,6.27,1.27,9.45,1.53,6.24.51,12.51.44,18.73-.31.58-.07,1.16-.15,1.73-.23.15-.02.62-.08.77-.09Z"/>
            </g>
            <g>
              <g>
                <path class="cls-36" d="m324.84,57.56c.99.32,1.98.64,2.97.93.43.12.87.25,1.31.36.18.05.37.09.55.13.14.03.37.03.49.11-.02-.02-.02-.01,0,0-.18-.12-.31-.42-.44-.59-.19-.27-.36-.55-.54-.83-.38-.62-.75-1.26-1.08-1.91-.59-1.16-4.05-10.7-4.96-12.33-.69-1.22-1.55-2.37-2.67-3.23-1.32-1.01-2.89-1.63-4.52-1.94-1.16-.22-2.47-.4-3.66-.23-.18.02-.26.12-.41.29-.31.33-.58.69-.83,1.07-1.65,2.45-2.16,5.49-1.03,8.27,1.31,3.19,4.24,5.5,7.22,7.03,1.23.64,6.7,2.59,7.58,2.88Z"/>
                <path class="cls-30" d="m324.1,45.34c-.62-1.42-1.37-2.82-2.4-3.99-2.05-2.33-5.14-3.26-8.16-3.36-.42-.01-.87-.03-1.3.03-.14.02-.11.02-.04.17.27.56.54,1.11.82,1.66,1.09,2.09,2.32,4.11,3.69,6.04,2.72,3.85,5.95,7.33,9.59,10.32,1.24,1.02,2.53,1.99,3.87,2.89-1.09-1.32-5.1-11.54-6.06-13.76Z"/>
              </g>
              <g class="cls-27">
                <g class="cls-21">
                  <path class="cls-41" d="m326,52.63c-.96.35-2.01.22-2.97-.06-.97-.34-1.73-1.01-2.41-1.76.75.74,1.53,1.37,2.54,1.71.89.3,1.92.38,2.83.11Z"/>
                  <path class="cls-48" d="m327.46,55.65c-1.17.42-2.35-.2-3.11-1.06.81.82,1.93,1.41,3.11,1.06Z"/>
                  <path class="cls-26" d="m324.55,49.6c-1.24.41-2.68.22-3.88-.23-1.44-.54-2.54-1.52-3.55-2.65,1.06,1.07,2.17,1.99,3.59,2.54,1.18.46,2.59.66,3.84.34Z"/>
                  <path class="cls-58" d="m323.53,46.21c-1.57.56-3.32.34-4.86-.18-1.69-.56-2.99-1.76-4.15-3.06.58.58,1.16,1.17,1.84,1.65.83.57,1.67,1.02,2.61,1.37,1.39.5,3.12.64,4.56.23Z"/>
                  <path class="cls-44" d="m322.37,43.46c-1.8.5-3.72.1-5.4-.59-1.81-.75-3.17-2.2-4.36-3.71,1.27,1.41,2.59,2.64,4.32,3.49,1.71.68,3.58,1.21,5.44.81Z"/>
                </g>
                <path class="cls-17" d="m322.39,55.91c.24-.91.15-1.93-.17-2.8-.38-1.02-1.01-1.79-1.78-2.53.77.65,1.46,1.4,1.82,2.36.31.96.46,1.99.13,2.97Z"/>
                <path class="cls-18" d="m325.19,57.29c.31-1.2-.31-2.29-1.16-3.08.87.75,1.54,1.89,1.16,3.08Z"/>
                <path class="cls-14" d="m319.82,54.62c.39-1.22.26-2.65-.13-3.86-.48-1.44-1.34-2.6-2.35-3.71,1.07,1.07,1.99,2.22,2.45,3.68.39,1.22.5,2.67.03,3.89Z"/>
                <path class="cls-13" d="m316.22,53.53c.73-1.3.99-3.02.82-4.49-.12-1-.36-1.92-.73-2.86-.31-.77-.75-1.47-1.18-2.17.99,1.42,1.87,2.96,2.03,4.73.15,1.63-.03,3.38-.94,4.79Z"/>
                <path class="cls-7" d="m313.33,49.67c.94-1.56,1.15-3.5,1.03-5.28-.13-1.93-.96-3.69-1.88-5.35.45.7.89,1.39,1.23,2.16.44.97.69,2,.83,3.05.06,1.89-.09,3.83-1.21,5.43Z"/>
              </g>
              <path class="cls-23" d="m330.16,59.09c-.11-.04-1.59-1.12-1.76-1.25-.85-.64-1.69-1.31-2.51-1.99-1.8-1.49-3.52-3.08-5.14-4.76-1.67-1.72-3.27-3.53-4.66-5.5-1.28-1.81-3.81-6.99-4.04-7.58.01,0,.03-.01.04-.01.81,1.66,1.61,3.31,2.61,4.86,1.27,1.95,2.6,3.88,4.12,5.65,2.98,3.47,6.26,6.65,9.87,9.46.34.26.67.52,1.02.77.09.06.36.27.45.35Z"/>
            </g>
          </g>
        </g>
      </g>
    </g>
  </g>
</svg>